<svg width="53" height="53" viewBox="0 0 53 53" fill="none" xmlns="http://www.w3.org/2000/svg">

    <g id="logo-outline">
        <mask id="path-1-inside-1_1103_3419" fill="white">
            <path fill-rule="evenodd" clip-rule="evenodd" d="M0 14H13H26V27H13V40H26V53H13H0V40V27V14Z"/>
        </mask>
        <path d="M0 14V13H-1V14H0ZM26 14H27V13H26V14ZM26 27V28H27V27H26ZM13 27V26H12V27H13ZM13 40H12V41H13V40ZM26 40H27V39H26V40ZM26 53V54H27V53H26ZM0 53H-1V54H0V53ZM13 13H0V15H13V13ZM26 13H13V15H26V13ZM27 27V14H25V27H27ZM13 28H26V26H13V28ZM14 40V27H12V40H14ZM13 41H26V39H13V41ZM25 40V53H27V40H25ZM26 52H13V54H26V52ZM0 54H13V52H0V54ZM-1 40V53H1V40H-1ZM-1 27V40H1V27H-1ZM-1 14V27H1V14H-1Z"
              fill="#C778DD" mask="url(#path-1-inside-1_1103_3419)"/>
        <mask id="path-3-outside-2_1103_3419" maskUnits="userSpaceOnUse" x="25" y="0" width="28" height="41"
              fill="black">
            <rect fill="white" x="25" width="28" height="41"/>
            <path fill-rule="evenodd" clip-rule="evenodd" d="M26 1H39H52V14V27V40H39H26V27H39V14H26V1Z"/>
        </mask>
        <path d="M26 1V0H25V1H26ZM52 1H53V0H52V1ZM52 40V41H53V40H52ZM26 40H25V41H26V40ZM26 27V26H25V27H26ZM39 27V28H40V27H39ZM39 14H40V13H39V14ZM26 14H25V15H26V14ZM39 0H26V2H39V0ZM52 0H39V2H52V0ZM53 14V1H51V14H53ZM53 27V14H51V27H53ZM53 40V27H51V40H53ZM39 41H52V39H39V41ZM39 39H26V41H39V39ZM27 40V27H25V40H27ZM26 28H39V26H26V28ZM38 14V27H40V14H38ZM26 15H39V13H26V15ZM25 1V14H27V1H25Z"
              fill="#C778DD" mask="url(#path-3-outside-2_1103_3419)"/>
    </g>

    <g id="logo-white">
        <path fill-rule="evenodd" clip-rule="evenodd"
              d="M39 0H26V13H13H0V26V39V52H13H26V39H39H52V26V13V0H39ZM13 39H26V26H39V13H26V26H13V39Z" fill="white"/>
    </g>

    <g id="dots">
        <circle cx="2" cy="2" r="2" fill="#ABB2BF"/>
        <circle cx="22" cy="2" r="2" fill="#ABB2BF"/>
        <circle cx="42" cy="2" r="2" fill="#ABB2BF"/>
        <circle cx="62" cy="2" r="2" fill="#ABB2BF"/>
        <circle cx="82" cy="2" r="2" fill="#ABB2BF"/>
        <circle cx="2" cy="22" r="2" fill="#ABB2BF"/>
        <circle cx="22" cy="22" r="2" fill="#ABB2BF"/>
        <circle cx="42" cy="22" r="2" fill="#ABB2BF"/>
        <circle cx="62" cy="22" r="2" fill="#ABB2BF"/>
        <circle cx="82" cy="22" r="2" fill="#ABB2BF"/>
        <circle cx="2" cy="42" r="2" fill="#ABB2BF"/>
        <circle cx="22" cy="42" r="2" fill="#ABB2BF"/>
        <circle cx="42" cy="42" r="2" fill="#ABB2BF"/>
        <circle cx="62" cy="42" r="2" fill="#ABB2BF"/>
        <circle cx="82" cy="42" r="2" fill="#ABB2BF"/>
        <circle cx="2" cy="62" r="2" fill="#ABB2BF"/>
        <circle cx="22" cy="62" r="2" fill="#ABB2BF"/>
        <circle cx="42" cy="62" r="2" fill="#ABB2BF"/>
        <circle cx="62" cy="62" r="2" fill="#ABB2BF"/>
        <circle cx="82" cy="62" r="2" fill="#ABB2BF"/>
        <circle cx="2" cy="82" r="2" fill="#ABB2BF"/>
        <circle cx="22" cy="82" r="2" fill="#ABB2BF"/>
        <circle cx="42" cy="82" r="2" fill="#ABB2BF"/>
        <circle cx="62" cy="82" r="2" fill="#ABB2BF"/>
        <circle cx="82" cy="82" r="2" fill="#ABB2BF"/>
    </g>

    <g id="square">
        <rect x="0.5" y="0.5" width="51" height="51" stroke="#ABB2BF"/>
    </g>

    <g id="quote">
        <path d="M10.56 15.616C10.56 17.0453 10.0373 18.2507 8.992 19.232C7.968 20.2133 6.72 20.704 5.248 20.704C3.73333 20.704 2.47467 20.2133 1.472 19.232C0.490667 18.2507 0 17.0453 0 15.616C0 14.9333 0.096 14.208 0.288 13.44C0.48 12.672 0.864 11.68 1.44 10.464L6.4 0H11.2L8.544 11.584C9.14133 12.0107 9.62133 12.576 9.984 13.28C10.368 13.9627 10.56 14.7413 10.56 15.616ZM24.8 15.616C24.8 17.0453 24.2773 18.2507 23.232 19.232C22.1867 20.2133 20.9387 20.704 19.488 20.704C18.016 20.704 16.768 20.2133 15.744 19.232C14.7413 18.2507 14.24 17.0453 14.24 15.616C14.24 14.9333 14.336 14.208 14.528 13.44C14.72 12.672 15.1147 11.68 15.712 10.464L20.704 0H25.472L22.784 11.584C23.4027 12.0107 23.8933 12.576 24.256 13.28C24.6187 13.9627 24.8 14.7413 24.8 15.616Z" fill="#ABB2BF"/>
    </g>

    <!--    icons-->
    <g id="map-point">
        <path d="M9.5 25C9.5 25 19 16.1156 19 9.375C19 6.8886 17.9991 4.50403 16.2175 2.74587C14.4359 0.98772 12.0196 0 9.5 0C6.98044 0 4.56408 0.98772 2.78249 2.74587C1.00089 4.50403 3.75443e-08 6.8886 0 9.375C0 16.1156 9.5 25 9.5 25ZM9.5 14.0625C8.24022 14.0625 7.03204 13.5686 6.14124 12.6896C5.25045 11.8105 4.75 10.6182 4.75 9.375C4.75 8.1318 5.25045 6.93951 6.14124 6.06044C7.03204 5.18136 8.24022 4.6875 9.5 4.6875C10.7598 4.6875 11.968 5.18136 12.8588 6.06044C13.7496 6.93951 14.25 8.1318 14.25 9.375C14.25 10.6182 13.7496 11.8105 12.8588 12.6896C11.968 13.5686 10.7598 14.0625 9.5 14.0625Z"
              fill="#ABB2BF"/>
    </g>

    <g id="git">
        <path d="M10.5 0C4.69875 0 0 4.58819 0 10.2529C0 14.7899 3.00562 18.6219 7.17937 19.9804C7.70437 20.0701 7.90125 19.7625 7.90125 19.4934C7.90125 19.2499 7.88813 18.4425 7.88813 17.5838C5.25 18.058 4.5675 16.9558 4.3575 16.3791C4.23938 16.0843 3.7275 15.1743 3.28125 14.9308C2.91375 14.7386 2.38875 14.2644 3.26813 14.2516C4.095 14.2388 4.68563 14.9949 4.8825 15.3025C5.8275 16.8533 7.33688 16.4175 7.94063 16.1484C8.0325 15.4819 8.30812 15.0334 8.61 14.777C6.27375 14.5207 3.8325 13.6364 3.8325 9.71466C3.8325 8.59965 4.23938 7.67689 4.90875 6.95918C4.80375 6.70286 4.43625 5.65193 5.01375 4.24215C5.01375 4.24215 5.89313 3.97301 7.90125 5.29308C8.74125 5.06239 9.63375 4.94704 10.5263 4.94704C11.4188 4.94704 12.3113 5.06239 13.1513 5.29308C15.1594 3.9602 16.0387 4.24215 16.0387 4.24215C16.6163 5.65193 16.2488 6.70286 16.1438 6.95918C16.8131 7.67689 17.22 8.58684 17.22 9.71466C17.22 13.6492 14.7656 14.5207 12.4294 14.777C12.81 15.0975 13.1381 15.7126 13.1381 16.6738C13.1381 18.0452 13.125 19.1474 13.125 19.4934C13.125 19.7625 13.3219 20.0829 13.8469 19.9804C15.9314 19.2935 17.7428 17.9854 19.026 16.2403C20.3092 14.4953 20.9996 12.4012 21 10.2529C21 4.58819 16.3013 0 10.5 0Z"
              fill="#ABB2BF"/>
    </g>
    <g id="twitter">
        <path d="M7.22487 19C15.9045 19 20.6526 11.6883 20.6526 5.35873C20.6526 5.15412 20.6526 4.9466 20.6439 4.74199C21.5683 4.06166 22.3661 3.21937 23 2.25459C22.1365 2.64165 21.2215 2.89676 20.2846 3.01162C21.2715 2.41189 22.0106 1.46827 22.3646 0.356148C21.4374 0.914607 20.4226 1.30664 19.3646 1.51509C18.6533 0.744931 17.712 0.234726 16.6866 0.0635014C15.6612 -0.107724 14.6089 0.0695869 13.6927 0.567968C12.7764 1.06635 12.0474 1.85799 11.6185 2.82026C11.1896 3.78253 11.0848 4.86173 11.3203 5.8907C9.444 5.79505 7.60842 5.29949 5.93262 4.43617C4.25682 3.57285 2.77823 2.36104 1.59275 0.879351C0.990926 1.93611 0.807262 3.18612 1.07905 4.37555C1.35085 5.56499 2.05772 6.60467 3.05612 7.28347C2.30796 7.25763 1.57625 7.05338 0.92 6.68719V6.75296C0.92129 7.85999 1.2985 8.93261 1.98788 9.78952C2.67726 10.6464 3.63651 11.2351 4.7035 11.4559C4.2985 11.5694 3.88014 11.6259 3.46006 11.624C3.16391 11.6249 2.86836 11.597 2.57744 11.5407C2.87901 12.4937 3.46621 13.3269 4.25679 13.9236C5.04738 14.5203 6.00176 14.8507 6.98625 14.8685C5.3138 16.2039 3.24789 16.9282 1.12125 16.9247C0.746524 16.9263 0.372058 16.9044 0 16.859C2.15843 18.258 4.66512 19.0008 7.22487 19Z"
              fill="#ABB2BF"/>
    </g>

    <g id="twitter-white">
        <path d="M7.22487 19C15.9045 19 20.6526 11.6883 20.6526 5.35873C20.6526 5.15412 20.6526 4.9466 20.6439 4.74199C21.5683 4.06166 22.3661 3.21937 23 2.25459C22.1365 2.64165 21.2215 2.89676 20.2846 3.01162C21.2715 2.41189 22.0106 1.46827 22.3646 0.356148C21.4374 0.914607 20.4226 1.30664 19.3646 1.51509C18.6533 0.744931 17.712 0.234726 16.6866 0.0635014C15.6612 -0.107724 14.6089 0.0695869 13.6927 0.567968C12.7764 1.06635 12.0474 1.85799 11.6185 2.82026C11.1896 3.78253 11.0848 4.86173 11.3203 5.8907C9.444 5.79505 7.60842 5.29949 5.93262 4.43617C4.25682 3.57285 2.77823 2.36104 1.59275 0.879351C0.990926 1.93611 0.807262 3.18612 1.07905 4.37555C1.35085 5.56499 2.05772 6.60467 3.05612 7.28347C2.30796 7.25763 1.57625 7.05338 0.92 6.68719V6.75296C0.92129 7.85999 1.2985 8.93261 1.98788 9.78952C2.67726 10.6464 3.63651 11.2351 4.7035 11.4559C4.2985 11.5694 3.88014 11.6259 3.46006 11.624C3.16391 11.6249 2.86836 11.597 2.57744 11.5407C2.87901 12.4937 3.46621 13.3269 4.25679 13.9236C5.04738 14.5203 6.00176 14.8507 6.98625 14.8685C5.3138 16.2039 3.24789 16.9282 1.12125 16.9247C0.746524 16.9263 0.372058 16.9044 0 16.859C2.15843 18.258 4.66512 19.0008 7.22487 19Z" fill="white"/>
    </g>

    <g id="linkedin">
        <path d="M0 1.719C0 0.7695 0.789 0 1.7625 0H22.2375C23.211 0 24 0.7695 24 1.719V22.281C24 23.2305 23.211 24 22.2375 24H1.7625C0.789 24 0 23.2305 0 22.281V1.719ZM7.4145 20.091V9.2535H3.813V20.091H7.4145ZM5.6145 7.773C6.87 7.773 7.6515 6.942 7.6515 5.901C7.629 4.8375 6.8715 4.029 5.6385 4.029C4.4055 4.029 3.6 4.839 3.6 5.901C3.6 6.942 4.3815 7.773 5.5905 7.773H5.6145ZM12.9765 20.091V14.0385C12.9765 13.7145 13.0005 13.3905 13.0965 13.1595C13.356 12.513 13.9485 11.8425 14.9445 11.8425C16.248 11.8425 16.7685 12.8355 16.7685 14.2935V20.091H20.37V13.875C20.37 10.545 18.594 8.997 16.224 8.997C14.313 8.997 13.4565 10.047 12.9765 10.7865V10.824H12.9525C12.9605 10.8115 12.9685 10.799 12.9765 10.7865V9.2535H9.3765C9.4215 10.2705 9.3765 20.091 9.3765 20.091H12.9765Z"
              fill="#ABB2BF"/>
    </g>

    <g id="discord">
        <path d="M21.1641 1.65906C19.543 0.878258 17.8325 0.320987 16.0751 0.00113909C16.0592 -0.00167518 16.0428 0.000755409 16.0283 0.00809674C16.0137 0.0154381 16.0017 0.0273296 15.9938 0.0421361C15.7735 0.452106 15.5298 0.988347 15.3595 1.40816C13.4651 1.10643 11.5383 1.10643 9.64391 1.40816C9.45393 0.940495 9.23901 0.484433 9.00017 0.0421361C8.99216 0.0274917 8.9801 0.0157372 8.9656 0.00841949C8.9511 0.00110175 8.93482 -0.00143631 8.91892 0.00113909C7.16113 0.319276 5.45021 0.876835 3.82991 1.65906C3.81605 1.66461 3.80445 1.67504 3.7971 1.68858C0.556508 6.77057 -0.332545 11.7279 0.103388 16.623C0.10495 16.6459 0.119013 16.6689 0.1362 16.6836C2.02325 18.1507 4.13396 19.2708 6.37832 19.9962C6.39417 20.0014 6.4112 20.0013 6.42693 19.9957C6.44267 19.99 6.45629 19.9793 6.46582 19.965C6.94707 19.2763 7.37519 18.5498 7.74393 17.7856C7.75162 17.7699 7.75425 17.752 7.75143 17.7345C7.74862 17.7171 7.74051 17.7011 7.72831 17.6889C7.72023 17.6809 7.71065 17.6747 7.70018 17.6708C7.027 17.3993 6.37503 17.0731 5.7502 16.6951C5.73275 16.6847 5.71977 16.6677 5.71395 16.6476C5.70814 16.6274 5.70993 16.6057 5.71895 16.5869C5.72427 16.5747 5.73231 16.564 5.74239 16.5557C5.87364 16.4524 6.00489 16.3442 6.12989 16.236C6.14093 16.2266 6.15418 16.2206 6.16821 16.2186C6.18225 16.2166 6.19655 16.2186 6.20957 16.2245C10.3017 18.1858 14.7314 18.1858 18.7735 16.2245C18.787 16.2183 18.8018 16.2162 18.8164 16.2182C18.831 16.2202 18.8448 16.2264 18.8563 16.236C18.9813 16.3442 19.1126 16.4524 19.2438 16.5557C19.2544 16.5639 19.263 16.5747 19.2687 16.5872C19.2744 16.5996 19.277 16.6134 19.2764 16.6272C19.2758 16.641 19.2719 16.6544 19.2651 16.6663C19.2584 16.6781 19.2489 16.688 19.2376 16.6951C18.6142 17.0765 17.9614 17.4024 17.286 17.6692C17.2752 17.6733 17.2655 17.6798 17.2574 17.6883C17.2493 17.6968 17.243 17.7071 17.2391 17.7184C17.2355 17.7294 17.2341 17.741 17.2349 17.7525C17.2357 17.7641 17.2387 17.7754 17.2438 17.7856C17.6188 18.5482 18.0485 19.2763 18.5204 19.965C18.5299 19.9793 18.5435 19.99 18.5593 19.9957C18.575 20.0013 18.592 20.0014 18.6079 19.9962C20.856 19.2731 22.9701 18.1528 24.8594 16.6836C24.8688 16.6768 24.8767 16.6677 24.8824 16.6572C24.8881 16.6467 24.8914 16.635 24.8922 16.623C25.4141 10.9637 24.0188 6.04738 21.1954 1.69022C21.1925 1.68302 21.1883 1.67653 21.1829 1.67116C21.1775 1.66579 21.1711 1.66167 21.1641 1.65906ZM8.35486 13.6417C7.12206 13.6417 6.10801 12.4544 6.10801 10.9982C6.10801 9.54032 7.10331 8.35305 8.35486 8.35305C9.61579 8.35305 10.6205 9.55016 10.6017 10.9982C10.6017 12.4544 9.60641 13.6417 8.35486 13.6417ZM16.661 13.6417C15.4298 13.6417 14.4142 12.4544 14.4142 10.9982C14.4142 9.54032 15.4095 8.35305 16.661 8.35305C17.922 8.35305 18.9282 9.55016 18.9079 10.9982C18.9079 12.4544 17.922 13.6417 16.661 13.6417Z"
              fill="#ABB2BF"/>
    </g>

    <g id="telegram">
        <path d="M23 11.5C23 14.55 21.7884 17.4751 19.6317 19.6317C17.4751 21.7884 14.55 23 11.5 23C8.45001 23 5.52494 21.7884 3.36827 19.6317C1.2116 17.4751 0 14.55 0 11.5C0 8.45001 1.2116 5.52494 3.36827 3.36827C5.52494 1.2116 8.45001 0 11.5 0C14.55 0 17.4751 1.2116 19.6317 3.36827C21.7884 5.52494 23 8.45001 23 11.5ZM11.9126 8.48987C10.7942 8.95563 8.55744 9.91875 5.20519 11.3792C4.66181 11.5949 4.37575 11.8076 4.34987 12.0146C4.30675 12.3639 4.74519 12.5019 5.34175 12.6903L5.59331 12.7693C6.17981 12.9605 6.97044 13.1833 7.38012 13.1919C7.75387 13.2006 8.16931 13.0482 8.62787 12.7319C11.7602 10.6174 13.3774 9.54931 13.478 9.52631C13.5499 9.50906 13.6505 9.48894 13.7166 9.54931C13.7842 9.60825 13.777 9.72181 13.7698 9.752C13.7267 9.93744 12.006 11.5359 11.1162 12.3639C10.8387 12.6227 10.6418 12.8053 10.6016 12.8469C10.5129 12.9375 10.4228 13.0267 10.3313 13.1143C9.78506 13.6404 9.37681 14.0343 10.3529 14.6783C10.8229 14.9888 11.1996 15.2432 11.5747 15.4991C11.983 15.778 12.3912 16.0554 12.9202 16.4033C13.0539 16.4896 13.1833 16.583 13.3084 16.6721C13.7842 17.0114 14.214 17.3161 14.7416 17.2673C15.0492 17.2385 15.3669 16.951 15.5279 16.0885C15.9088 14.0516 16.6578 9.63988 16.8302 7.82144C16.8408 7.67027 16.8345 7.51841 16.8116 7.36862C16.798 7.24776 16.7395 7.13641 16.6477 7.05669C16.5169 6.9664 16.361 6.91962 16.2021 6.923C15.7708 6.93019 15.1052 7.16163 11.9126 8.48987Z"
              fill="#ABB2BF"/>
    </g>

    <g id="email">
        <path d="M0.071875 2.20292C0.216801 1.57709 0.573067 1.01832 1.08232 0.618104C1.59158 0.217889 2.22365 -4.32004e-05 2.875 6.42336e-09H20.125C20.7764 -4.32004e-05 21.4084 0.217889 21.9177 0.618104C22.4269 1.01832 22.7832 1.57709 22.9281 2.20292L11.5 9.0865L0.071875 2.20292ZM0 3.82075V13.8847L8.34181 8.84425L0 3.82075ZM9.71894 9.67583L0.274563 15.3807C0.507907 15.8657 0.876195 16.2753 1.33656 16.5619C1.79693 16.8486 2.33044 17.0005 2.875 17H20.125C20.6695 17.0001 21.2028 16.8479 21.6629 16.561C22.123 16.274 22.491 15.8643 22.724 15.3793L13.2796 9.67442L11.5 10.7468L9.71894 9.67442V9.67583ZM14.6582 8.84567L23 13.8847V3.82075L14.6582 8.84425V8.84567Z"
              fill="#ABB2BF"/>
    </g>

    <g id="figma">
        <path d="M7 10C7 9.11594 7.36875 8.2681 8.02513 7.64298C8.6815 7.01786 9.57174 6.66667 10.5 6.66667C11.4283 6.66667 12.3185 7.01786 12.9749 7.64298C13.6313 8.2681 14 9.11594 14 10C14 10.8841 13.6313 11.7319 12.9749 12.357C12.3185 12.9821 11.4283 13.3333 10.5 13.3333C9.57174 13.3333 8.6815 12.9821 8.02513 12.357C7.36875 11.7319 7 10.8841 7 10ZM0 16.6667C0 15.7826 0.368749 14.9348 1.02513 14.3096C1.6815 13.6845 2.57174 13.3333 3.5 13.3333H7V16.6667C7 17.5507 6.63125 18.3986 5.97487 19.0237C5.3185 19.6488 4.42826 20 3.5 20C2.57174 20 1.6815 19.6488 1.02513 19.0237C0.368749 18.3986 0 17.5507 0 16.6667ZM7 0V6.66667H10.5C11.4283 6.66667 12.3185 6.31548 12.9749 5.69036C13.6313 5.06523 14 4.21739 14 3.33333C14 2.44928 13.6313 1.60143 12.9749 0.976311C12.3185 0.35119 11.4283 0 10.5 0L7 0ZM0 3.33333C0 4.21739 0.368749 5.06523 1.02513 5.69036C1.6815 6.31548 2.57174 6.66667 3.5 6.66667H7V0H3.5C2.57174 0 1.6815 0.35119 1.02513 0.976311C0.368749 1.60143 0 2.44928 0 3.33333ZM0 10C0 10.8841 0.368749 11.7319 1.02513 12.357C1.6815 12.9821 2.57174 13.3333 3.5 13.3333H7V6.66667H3.5C2.57174 6.66667 1.6815 7.01786 1.02513 7.64298C0.368749 8.2681 0 9.11594 0 10Z"
              fill="#ABB2BF"/>
    </g>

    <g id="dribble">
        <path fill-rule="evenodd" clip-rule="evenodd"
              d="M11.5 0C5.152 0 0 5.152 0 11.5C0 17.848 5.152 23 11.5 23C17.8365 23 23 17.848 23 11.5C23 5.152 17.8365 0 11.5 0ZM19.0958 5.3015C20.5115 7.02546 21.2951 9.18167 21.3167 11.4123C20.9918 11.3505 17.7488 10.6892 14.4814 11.1004C14.4066 10.9394 14.3434 10.764 14.2686 10.5901C14.0688 10.1157 13.8446 9.62981 13.6203 9.16694C17.2371 7.69637 18.8844 5.57606 19.0972 5.30006L19.0958 5.3015ZM11.5 1.69625C13.9941 1.69625 16.2768 2.63063 18.0119 4.16587C17.8365 4.416 16.3516 6.39831 12.8599 7.70787C11.2499 4.75238 9.46737 2.33162 9.19281 1.95788C9.94909 1.78129 10.7234 1.69349 11.5 1.69625ZM7.32119 2.61913C8.63747 4.44338 9.85348 6.33793 10.9638 8.29438C6.37387 9.51625 2.32012 9.49181 1.88312 9.49181C2.19917 8.00504 2.85438 6.61137 3.79766 5.41949C4.74094 4.22761 5.9468 3.26973 7.32119 2.62056V2.61913ZM1.67181 11.5144V11.2125C2.09588 11.2269 6.86119 11.2887 11.7631 9.81669C12.0491 10.3644 12.3108 10.9264 12.5609 11.4871L12.1728 11.5992C7.10988 13.2336 4.416 17.6985 4.19031 18.0737C2.56856 16.2734 1.67131 13.936 1.67181 11.5129V11.5144ZM11.5 21.3282C9.31723 21.3316 7.19639 20.6027 5.47687 19.2582C5.64937 18.8959 7.64606 15.0549 13.1833 13.1215C13.2092 13.1086 13.2207 13.1086 13.2466 13.0971C14.1801 15.5068 14.8814 18.0002 15.341 20.5433C14.1277 21.0646 12.8205 21.3318 11.5 21.3282ZM16.9769 19.6449C16.8763 19.0454 16.3516 16.1776 15.0679 12.6471C18.1484 12.1613 20.8423 12.9591 21.1787 13.0712C20.9692 14.3975 20.4876 15.6662 19.7643 16.7974C19.0409 17.9287 18.0914 18.8982 16.9754 19.6449H16.9769Z"
              fill="#ABB2BF"/>
    </g>

    <g id="card">
        <path d="M0 2.66667C0 1.95942 0.289731 1.28115 0.805456 0.781048C1.32118 0.280951 2.02065 0 2.75 0H19.25C19.9793 0 20.6788 0.280951 21.1945 0.781048C21.7103 1.28115 22 1.95942 22 2.66667V9.33333H0V2.66667ZM15.8125 4C15.6302 4 15.4553 4.07024 15.3264 4.19526C15.1974 4.32029 15.125 4.48986 15.125 4.66667V6C15.125 6.17681 15.1974 6.34638 15.3264 6.4714C15.4553 6.59643 15.6302 6.66667 15.8125 6.66667H18.5625C18.7448 6.66667 18.9197 6.59643 19.0486 6.4714C19.1776 6.34638 19.25 6.17681 19.25 6V4.66667C19.25 4.48986 19.1776 4.32029 19.0486 4.19526C18.9197 4.07024 18.7448 4 18.5625 4H15.8125ZM0 12V13.3333C0 14.0406 0.289731 14.7189 0.805456 15.219C1.32118 15.719 2.02065 16 2.75 16H19.25C19.9793 16 20.6788 15.719 21.1945 15.219C21.7103 14.7189 22 14.0406 22 13.3333V12H0Z"
              fill="#ABB2BF"/>
    </g>

    <g id="bitcoin">
        <path d="M4.13235 21.2308V23.5385C4.13235 23.7932 4.33823 24 4.59191 24H6.43015C6.55203 24 6.66892 23.9514 6.7551 23.8648C6.84129 23.7783 6.88971 23.6609 6.88971 23.5385V21.2308H7.80882V23.5385C7.80882 23.7932 8.01471 24 8.26838 24H10.1066C10.2285 24 10.3454 23.9514 10.4316 23.8648C10.5178 23.7783 10.5662 23.6609 10.5662 23.5385V21.2308H10.7206C14.3824 21.2308 17 19.3237 17 16.0246C17 13.2517 15.1489 11.736 12.9816 11.52V11.3575C14.7647 10.9108 16.0754 9.55938 16.0754 7.31446C16.0754 4.48615 13.9614 2.76923 10.7353 2.76923H10.5662V0.461538C10.5662 0.339131 10.5178 0.221737 10.4316 0.135182C10.3454 0.0486263 10.2285 0 10.1066 0H8.26838C8.1465 0 8.02961 0.0486263 7.94343 0.135182C7.85724 0.221737 7.80882 0.339131 7.80882 0.461538V2.76923H6.75551V0.461538C6.75551 0.339131 6.7071 0.221737 6.62091 0.135182C6.53473 0.0486263 6.41784 0 6.29596 0H4.59191C4.47003 0 4.35314 0.0486263 4.26695 0.135182C4.18077 0.221737 4.13235 0.339131 4.13235 0.461538V2.76923L0.459559 2.78954C0.337676 2.78954 0.220785 2.83816 0.134601 2.92472C0.0484173 3.01128 0 3.12867 0 3.25108V5.07692C0 5.32985 0.202206 5.53846 0.455882 5.53846L1.84375 5.52923C2.2078 5.53167 2.55612 5.67862 2.81268 5.93802C3.06925 6.19743 3.21324 6.54822 3.21324 6.91385V17.0769C3.21324 17.4441 3.06798 17.7963 2.80943 18.056C2.55088 18.3157 2.20021 18.4615 1.83456 18.4615L0.459559 18.4818C0.337676 18.4818 0.220785 18.5305 0.134601 18.617C0.0484173 18.7036 0 18.821 0 18.9434V20.7895C0 21.0443 0.205882 21.2511 0.459559 21.2511L4.13235 21.2308ZM6.75551 5.51446H9.91544C11.5809 5.51446 12.5588 6.43385 12.5588 7.93661C12.5588 9.54461 11.5018 10.4511 9.10846 10.4511H6.75551V5.51446ZM6.75551 12.9932H10.1379C12.2279 12.9932 13.3658 14.064 13.3658 15.8068C13.3658 17.5662 12.2151 18.4837 9.3989 18.4837H6.75551V12.9951V12.9932Z"
              fill="#ABB2BF"/>
    </g>

    <g id="play">
        <path d="M15.192 10.394L2.466 17.778C1.386 18.404 0 17.646 0 16.384L0 1.61596C0 0.355964 1.384 -0.404037 2.466 0.223963L15.192 7.60796C15.4377 7.74821 15.6419 7.95094 15.7839 8.19558C15.926 8.44022 16.0008 8.71808 16.0008 9.00096C16.0008 9.28385 15.926 9.56171 15.7839 9.80635C15.6419 10.051 15.4377 10.2537 15.192 10.394Z"
              fill="#ABB2BF"/>
    </g>

    <g id="calendar">
        <path d="M4.375 0C4.54076 0 4.69973 0.065848 4.81694 0.183058C4.93415 0.300269 5 0.45924 5 0.625V1.25H15V0.625C15 0.45924 15.0658 0.300269 15.1831 0.183058C15.3003 0.065848 15.4592 0 15.625 0C15.7908 0 15.9497 0.065848 16.0669 0.183058C16.1842 0.300269 16.25 0.45924 16.25 0.625V1.25H17.5C18.163 1.25 18.7989 1.51339 19.2678 1.98223C19.7366 2.45107 20 3.08696 20 3.75V17.5C20 18.163 19.7366 18.7989 19.2678 19.2678C18.7989 19.7366 18.163 20 17.5 20H2.5C1.83696 20 1.20107 19.7366 0.732233 19.2678C0.263392 18.7989 0 18.163 0 17.5V6.25H20V5H0V3.75C0 3.08696 0.263392 2.45107 0.732233 1.98223C1.20107 1.51339 1.83696 1.25 2.5 1.25H3.75V0.625C3.75 0.45924 3.81585 0.300269 3.93306 0.183058C4.05027 0.065848 4.20924 0 4.375 0V0Z"
              fill="#ABB2BF"/>
    </g>

</svg>
